<svg xmlns="http://www.w3.org/2000/svg" xmlns:xlink="http://www.w3.org/1999/xlink" version="1.1" enable-background="new 0 0 0 0" xml:space="preserve" width="100" height="98" style=""><rect id="backgroundrect" width="100%" height="100%" x="0" y="0" fill="none" stroke="none"/><g class="currentLayer" style=""><title>Layer 1</title><g id="svg_1" class="selected" fill="#ffffff" fill-opacity="1"><g id="svg_2" fill="#ffffff" fill-opacity="1"><polygon points="17.090999603271484,77.67047119140625 36.50699996948242,77.67047119140625 38.321998596191406,70.83446502685547 17.090999603271484,70.83446502685547 " id="svg_3" fill="#ffffff" fill-opacity="1"/><path d="M41.65599822998047,58.27846908569336 c0.21799999475479126,-0.8149999976158142 0.5889999866485596,-1.5759999752044678 1.0820000171661377,-2.255000114440918 H17.090999603271484 v6.835999965667725 h23.350000381469727 L41.65599822998047,58.27846908569336 z" id="svg_4" fill="#ffffff" fill-opacity="1"/><polygon points="67.22200012207031,31.41046905517578 67.22200012207031,26.400468826293945 17.090999603271484,26.400468826293945 17.090999603271484,33.23646926879883 65.3949966430664,33.23646926879883 " id="svg_5" fill="#ffffff" fill-opacity="1"/><path d="M75.19499969482422,88.86547088623047 H9.11400032043457 V9.112468719482422 h15.383000373840332 c0,3.4609999656677246 2.805999994277954,6.267000198364258 6.265999794006348,6.267000198364258 H53.54999923706055 c3.4600000381469727,0 6.265999794006348,-2.805999994277954 6.265999794006348,-6.267000198364258 h15.380000114440918 v14.324000358581543 l3.7049999237060547,-3.7049999237060547 c1.5169999599456787,-1.5160000324249268 3.388000011444092,-2.5230000019073486 5.409999847412109,-2.947000026702881 v-7.671999931335449 c0,-5.0329999923706055 -4.080999851226807,-9.11400032043457 -9.114999771118164,-9.11400032043457 H9.11400032043457 C4.079999923706055,-0.0015312433242797852 0,4.079468727111816 0,9.112468719482422 v79.75299835205078 C0,93.89946746826172 4.079999923706055,97.98046875 9.11400032043457,97.98046875 h66.08100128173828 c5.033999919891357,0 9.114999771118164,-4.080999851226807 9.114999771118164,-9.114999771118164 V63.53047180175781 l-9.114999771118164,9.114999771118164 V88.86547088623047 z" id="svg_6" fill="#ffffff" fill-opacity="1"/><polygon points="57.41699981689453,41.21146774291992 17.090999603271484,41.21146774291992 17.090999603271484,48.04747009277344 50.58100128173828,48.04747009277344 " id="svg_7" fill="#ffffff" fill-opacity="1"/><path d="M98.20800018310547,32.8914680480957 l-7.4670000076293945,-7.4670000076293945 c-2.052999973297119,-2.053999900817871 -4.952000141143799,-2.9130001068115234 -7.010000228881836,-0.8560000061988831 L48.263999938964844,60.033470153808594 l-5.396999835968018,20.322999954223633 l20.334999084472656,-5.383999824523926 l35.4739990234375,-35.47600173950195 C100.7249984741211,37.44546890258789 100.26200103759766,34.94247055053711 98.20800018310547,32.8914680480957 zM46.736000061035156,76.88846588134766 l1.809999942779541,-6.818999767303467 l5.005000114440918,5.01200008392334 L46.736000061035156,76.88846588134766 zM86.53900146484375,36.69846725463867 L56.93299865722656,66.29946899414062 L53.400001525878906,62.76546859741211 l29.260000228881836,-29.270999908447266 c0.515999972820282,-0.5180000066757202 2.3570001125335693,0.14900000393390656 2.871000051498413,0.6660000085830688 C86.0479965209961,34.674468994140625 87.05000305175781,36.183467864990234 86.53900146484375,36.69846725463867 z" id="svg_8" fill="#ffffff" fill-opacity="1"/></g></g></g></svg>